<svg width="166" height="166" viewBox="0 0 166 166" fill="none" xmlns="http://www.w3.org/2000/svg">
<path d="M166 0H86L127 2.5L132.5 9.5L125.061 18V27L139.265 49L141.041 69L134.531 71L136 120.5L140 123V132L118 159L86 166H166V0Z" fill="#F2EBE2"/>
<path d="M72 0H0V166H72C72 166 49.2492 162.582 39.5 153C30.3373 143.995 26 123 26 123L30.5 120V73.5L26 66L30.5 44.5L39.5 32L42 17L37 14.5V3L72 0Z" fill="#F2EBE2"/>
<path d="M55.184 163.655C38.6241 158.012 27.2277 144.692 24.347 127.613L23.1656 120.609L25.8383 118.477L28.511 116.346L28.3523 95.0509L28.1936 73.7556L26.2919 73.2583C19.3279 71.4372 24.1397 46.1696 33.9286 33.1574C38.2621 27.397 39.4121 25.0954 39.4121 22.1841L39.4121 18.5001L35.9121 15.7074L32.4122 12.9148V8.91196C32.4122 5.99537 33.0783 4.24303 34.8667 2.45459L37.3213 0H83.4122H129.503L131.958 2.45459C133.746 4.24303 134.412 5.99537 134.412 8.91196V12.9148L130.912 15.7074L127.412 18.5001L127.412 22.3612C127.412 25.3499 128.27 27.2708 131.208 30.8613C139.563 41.0731 142.31 48.2986 143.128 62.2201L143.7 71.9402L141.128 72.9179L138.557 73.8956L138.452 95.3118L138.348 116.728L140.963 118.442L143.578 120.155L142.875 125.271C140.19 144.789 127.28 159.674 108.877 164.467C104.494 165.609 97.749 165.993 82.4519 165.974L61.9121 165.948L55.184 163.655ZM103.268 159.954C119.504 157.319 134.167 143.259 136.853 127.75L137.503 124H83.4124H29.3217L29.9713 127.75C32.5767 142.792 47.3715 157.345 62.6453 159.889C70.1292 161.136 95.7329 161.176 103.268 159.954ZM133.412 95.5V73H83.4124H33.4123V95.5V118H83.4124H133.412V95.5ZM137.16 59.4381C136.543 49.5474 132.975 40.9453 126.89 34.6803L123.316 31H83.3132H43.3104L39.8308 34.75C37.917 36.8125 34.9669 41.2847 33.275 44.6881L30.1988 50.8762L29.6646 59.4381L29.1304 68H83.4124H137.694L137.16 59.4381ZM122.412 21.5V18H83.4124H44.4124V21.5V25H83.4124H122.412V21.5ZM128.804 9.69144L129.912 7.88288L127.971 6.44145L126.03 5.00002H83.6555C41.7363 5.00002 37.4124 5.31183 37.4124 8.33519C37.4124 11.9136 38.9309 12.0259 83.7639 11.7603L127.695 11.4999L128.804 9.69144Z" fill="black"/>
</svg>
